<?xml version="1.0" encoding="iso-8859-1"?>
<!-- Generator: Adobe Illustrator 19.0.0, SVG Export Plug-In . SVG Version: 6.00 Build 0)  -->
<svg version="1.1" id="Capa_1" xmlns="http://www.w3.org/2000/svg" xmlns:xlink="http://www.w3.org/1999/xlink" x="0px" y="0px"
	 viewBox="0 0 512 512" style="enable-background:new 0 0 512 512;" xml:space="preserve">
<g>
	<g>
		<path d="M307.2,86.929V59.733h25.6c4.71,0,8.533-3.814,8.533-8.533V8.533C341.333,3.814,337.51,0,332.8,0H230.4
			c-4.71,0-8.533,3.814-8.533,8.533V51.2c0,4.719,3.823,8.533,8.533,8.533H256v27.196c-47.053,5.649-91.17,26.999-124.945,60.621
			c-3.337,3.328-3.354,8.73-0.026,12.066c3.328,3.336,8.73,3.371,12.066,0.034c32.794-32.649,76.177-52.719,122.138-56.508
			c4.429-0.367,7.834-4.062,7.834-8.508V51.2c0-4.719-3.823-8.533-8.533-8.533h-25.6v-25.6h85.333v25.6h-25.6
			c-4.71,0-8.533,3.814-8.533,8.533v43.435c0,4.437,3.405,8.141,7.834,8.508c100.881,8.32,179.9,94.208,179.9,195.524
			c0,108.228-88.047,196.267-196.267,196.267c-55.765,0-109.09-23.851-146.304-65.442c-3.149-3.516-8.542-3.806-12.049-0.666
			s-3.806,8.533-0.666,12.049C163.021,486.076,220.988,512,281.6,512c117.632,0,213.333-95.701,213.333-213.333
			C494.933,191.172,413.09,99.661,307.2,86.929z"/>
	</g>
</g>
<g>
	<g>
		<path d="M449.766,104.9c-3.328-3.337-8.738-3.337-12.066,0l-30.848,30.848c-3.336,3.336-3.336,8.73,0,12.066
			c1.664,1.664,3.849,2.5,6.033,2.5c2.176,0,4.361-0.828,6.033-2.5l30.848-30.848C453.103,113.63,453.103,108.237,449.766,104.9z"/>
	</g>
</g>
<g>
	<g>
		<path d="M475.366,130.5l-51.2-51.2c-3.328-3.337-8.738-3.337-12.066,0c-3.337,3.337-3.337,8.73,0,12.066l51.2,51.2
			c1.664,1.664,3.849,2.5,6.033,2.5c2.185,0,4.369-0.836,6.033-2.5C478.703,139.23,478.703,133.837,475.366,130.5z"/>
	</g>
</g>
<g>
	<g>
		<path d="M433.195,274.867c-0.725-4.659-5.086-7.834-9.745-7.117c-4.659,0.734-7.842,5.094-7.117,9.754
			c6.733,43.068-7.543,87.066-38.187,117.709c-37.828,37.828-94.643,50.091-144.734,31.241c-4.412-1.681-9.327,0.563-10.991,4.975
			c-1.664,4.412,0.563,9.335,4.975,10.991c17.562,6.613,35.857,9.822,54.008,9.822c40.098,0,79.514-15.667,108.808-44.962
			C424.687,372.804,440.755,323.302,433.195,274.867z"/>
	</g>
</g>
<g>
	<g>
		<path d="M398.566,181.7c-3.337-3.337-8.738-3.337-12.066,0l-86.801,86.801c-3.336,3.337-3.336,8.73,0,12.066
			c1.664,1.664,3.849,2.5,6.033,2.5c2.185,0,4.369-0.836,6.033-2.5l86.801-86.801C401.903,190.43,401.903,185.037,398.566,181.7z"/>
	</g>
</g>
<g>
	<g>
		<path d="M263.501,316.766c-3.337-3.337-8.738-3.337-12.066,0l-30.174,30.174c-3.337,3.337-3.337,8.73,0,12.066
			c1.664,1.664,3.849,2.5,6.033,2.5c2.185,0,4.369-0.828,6.033-2.5l30.174-30.174C266.837,325.495,266.837,320.102,263.501,316.766z
			"/>
	</g>
</g>
<g>
	<g>
		<path d="M170.667,170.667H34.133c-4.71,0-8.533,3.814-8.533,8.533s3.823,8.533,8.533,8.533h136.533
			c4.71,0,8.533-3.814,8.533-8.533S175.377,170.667,170.667,170.667z"/>
	</g>
</g>
<g>
	<g>
		<path d="M170.667,290.133H25.6c-4.71,0-8.533,3.814-8.533,8.533S20.89,307.2,25.6,307.2h145.067c4.71,0,8.533-3.814,8.533-8.533
			S175.377,290.133,170.667,290.133z"/>
	</g>
</g>
<g>
	<g>
		<path d="M110.933,409.6H42.667c-4.71,0-8.533,3.814-8.533,8.533s3.823,8.533,8.533,8.533h68.267c4.71,0,8.533-3.814,8.533-8.533
			S115.644,409.6,110.933,409.6z"/>
	</g>
</g>
<g>
	<g>
		<path d="M136.533,349.867H42.667c-4.71,0-8.533,3.814-8.533,8.533s3.823,8.533,8.533,8.533h93.867c4.71,0,8.533-3.814,8.533-8.533
			S141.244,349.867,136.533,349.867z"/>
	</g>
</g>
<g>
	<g>
		<path d="M145.067,230.4h-102.4c-4.71,0-8.533,3.814-8.533,8.533s3.823,8.533,8.533,8.533h102.4c4.71,0,8.533-3.814,8.533-8.533
			S149.777,230.4,145.067,230.4z"/>
	</g>
</g>
<g>
	<g>
		<path d="M281.344,256c-23.526,0-42.667,19.14-42.667,42.667c0,23.526,19.14,42.667,42.667,42.667s42.667-19.14,42.667-42.667
			C324.011,275.14,304.87,256,281.344,256z M281.344,324.267c-14.114,0-25.6-11.486-25.6-25.6s11.486-25.6,25.6-25.6
			s25.6,11.486,25.6,25.6S295.458,324.267,281.344,324.267z"/>
	</g>
</g>
</svg>
