<svg xmlns="http://www.w3.org/2000/svg" fill='#fff' viewBox="0 0 512 512"><g><g xmlns="http://www.w3.org/2000/svg"><path d="m246.929688 255.136719h-173.664063c-10.234375 0-18.558594 8.324219-18.558594 18.558593 0 10.234376 8.324219 18.558594 18.558594 18.558594h173.664063c10.230468 0 18.558593-8.324218 18.558593-18.558594 0-10.234374-8.324219-18.558593-18.558593-18.558593zm0 22.113281h-173.664063c-1.960937 0-3.558594-1.59375-3.558594-3.558594 0-1.960937 1.597657-3.558594 3.558594-3.558594h173.664063c1.960937 0 3.558593 1.597657 3.558593 3.558594 0 1.964844-1.597656 3.558594-3.558593 3.558594zm0 0"></path><path d="m246.929688 305.050781h-173.664063c-10.234375 0-18.558594 8.324219-18.558594 18.558594 0 10.230469 8.324219 18.558594 18.558594 18.558594h173.664063c10.230468 0 18.558593-8.324219 18.558593-18.558594s-8.324219-18.558594-18.558593-18.558594zm0 22.117188h-173.664063c-1.960937 0-3.558594-1.597657-3.558594-3.558594s1.597657-3.558594 3.558594-3.558594h173.664063c1.960937 0 3.558593 1.597657 3.558593 3.558594s-1.597656 3.558594-3.558593 3.558594zm0 0"></path><path d="m246.929688 354.964844h-173.664063c-10.234375 0-18.558594 8.328125-18.558594 18.558594 0 10.234374 8.324219 18.558593 18.558594 18.558593h173.664063c10.230468 0 18.558593-8.324219 18.558593-18.558593 0-10.230469-8.324219-18.558594-18.558593-18.558594zm0 22.117187h-173.664063c-1.960937 0-3.558594-1.597656-3.558594-3.558593 0-1.960938 1.597657-3.558594 3.558594-3.558594h173.664063c1.960937 0 3.558593 1.597656 3.558593 3.558594 0 1.960937-1.597656 3.558593-3.558593 3.558593zm0 0"></path><path d="m246.929688 404.882812h-173.664063c-10.234375 0-18.558594 8.324219-18.558594 18.558594 0 10.230469 8.324219 18.558594 18.558594 18.558594h173.664063c10.230468 0 18.558593-8.324219 18.558593-18.558594s-8.324219-18.558594-18.558593-18.558594zm0 22.117188h-173.664063c-1.960937 0-3.558594-1.597656-3.558594-3.5625 0-1.960938 1.597657-3.554688 3.558594-3.554688h173.664063c1.960937 0 3.558593 1.59375 3.558593 3.554688 0 1.964844-1.597656 3.5625-3.558593 3.5625zm0 0"></path><path d="m416.136719 82.941406-74.457031-74.457031c-5.472657-5.46875-12.75-8.484375-20.488282-8.484375h-194.339844c-12.363281 0-22.425781 10.058594-22.425781 22.421875v42.023437h-82.003906c-12.363281 0-22.421875 10.058594-22.421875 22.421876v402.710937c0 12.363281 10.058594 22.421875 22.421875 22.421875h275.351563c12.363281 0 22.421874-10.058594 22.421874-22.421875v-42.023437h82.003907c12.363281 0 22.421875-10.058594 22.421875-22.421876v-148.46875c0-4.144531-3.355469-7.5-7.5-7.5-4.140625 0-7.5 3.355469-7.5 7.5v148.46875c0 4.09375-3.328125 7.421876-7.421875 7.421876h-82.003907v-55h31.160157c10.234375 0 18.558593-8.324219 18.558593-18.558594s-8.324218-18.558594-18.558593-18.558594h-31.160157v-12.796875h31.160157c10.234375 0 18.558593-8.328125 18.558593-18.5625 0-10.230469-8.324218-18.558594-18.558593-18.558594h-31.160157v-12.796875h31.160157c10.234375 0 18.558593-8.324218 18.558593-18.558594 0-10.234374-8.324218-18.558593-18.558593-18.558593h-31.160157v-12.800781h31.160157c10.234375 0 18.558593-8.324219 18.558593-18.558594 0-10.230469-8.324218-18.558594-18.558593-18.558594h-31.160157v-12.800781h31.160157c10.234375 0 18.558593-8.324219 18.558593-18.554688 0-10.234375-8.324218-18.5625-18.558593-18.5625h-46.257813l-67.84375-67.84375c-5.40625-5.402343-12.515625-8.484375-20.898437-8.484375h-96.925781v-42.019531c0-4.09375 3.328124-7.421875 7.421874-7.421875h186.429688v76.996094c0 10.667968 8.679688 19.34375 19.347656 19.34375h76.996094v130.324218c0 4.144532 3.355469 7.5 7.5 7.5 4.140625 0 7.5-3.355468 7.5-7.5v-137.824218c-.003906-8.394532-3.128906-15.535156-8.488281-20.898438zm-64.78125 272.496094c1.964843 0 3.558593 1.597656 3.558593 3.558594 0 1.960937-1.59375 3.558594-3.558593 3.558594h-31.160157v-7.117188zm0-49.917969c1.964843 0 3.558593 1.597657 3.558593 3.558594 0 1.964844-1.59375 3.5625-3.558593 3.5625h-31.160157v-7.117187h31.160157zm0-49.914062c1.964843 0 3.558593 1.597656 3.558593 3.558593 0 1.960938-1.59375 3.558594-3.558593 3.558594h-31.160157v-7.117187zm0-49.914063c1.964843 0 3.558593 1.59375 3.558593 3.558594 0 1.960938-1.59375 3.558594-3.558593 3.558594h-31.160157v-7.117188zm0-49.917968c1.964843 0 3.558593 1.597656 3.558593 3.558593 0 1.964844-1.59375 3.558594-3.558593 3.558594h-31.582031c-.394532-2.28125-1.164063-4.84375-2.207032-7.113281h33.789063zm-50.253907 2.21875c.738282.738281 1.527344 1.738281 2.148438 2.792968h-75.050781c-2.394531 0-4.34375-1.949218-4.34375-4.347656v-75.046875c1.054687.621094 2.042969 1.398437 2.789062 2.148437zm-92.246093-78.546876v76.992188c0 10.667969 8.675781 19.347656 19.34375 19.347656h76.996093v313.792969c0 4.09375-3.328124 7.421875-7.421874 7.421875h-275.351563c-4.09375 0-7.421875-3.328125-7.421875-7.421875v-402.710937c0-4.09375 3.328125-7.421876 7.421875-7.421876zm119.425781 12.550782v-75.050782c1.058594.625 2.050781 1.40625 2.792969 2.148438l74.457031 74.457031c.804688.804688 1.574219 1.820313 2.148438 2.789063h-75.054688c-2.394531 0-4.34375-1.949219-4.34375-4.34375zm0 0"></path><path d="m54.707031 223.777344c0 10.234375 8.324219 18.558594 18.558594 18.558594h173.664063c10.230468 0 18.558593-8.324219 18.558593-18.558594s-8.324219-18.558594-18.558593-18.558594h-69.332032c-4.144531 0-7.5 3.355469-7.5 7.5 0 4.140625 3.355469 7.5 7.5 7.5h69.332032c1.960937 0 3.558593 1.597656 3.558593 3.558594 0 1.960937-1.597656 3.558594-3.558593 3.558594h-173.664063c-1.960937 0-3.558594-1.597657-3.558594-3.558594 0-1.960938 1.597657-3.558594 3.558594-3.558594h69.332031c4.144532 0 7.5-3.359375 7.5-7.5 0-4.144531-3.355468-7.5-7.5-7.5h-69.332031c-10.234375 0-18.558594 8.324219-18.558594 18.558594zm0 0"></path></g></g></svg>