<svg xmlns="http://www.w3.org/2000/svg" fill='#fff' viewBox="0 0 511.999 511.999">
 <path d="M295.944,290.011l-1.042,0.278c-4.314,1.15-6.879,5.579-5.729,9.894c0.964,3.616,4.233,6.004,7.806,6.004 c0.689,0,1.389-0.088,2.087-0.275l1.042-0.278c4.314-1.15,6.879-5.579,5.729-9.894 C304.687,291.426,300.26,288.865,295.944,290.011z"/><path d="M511.496,269.648c-1.224-4.571-4.592-8.335-9.238-10.328l-49.115-21.059c-5.879-2.521-13.199-0.563-17.031,4.554 c-2.262,3.021-3.021,6.757-2.082,10.25l8.327,30.972L72.369,383.891l-5.213,1.392c-21.57,5.76-43.813-7.031-49.59-28.515 c-2.789-10.375-1.365-21.214,4.011-30.525c4.939-8.555,12.669-14.884,21.958-18.042v55.361c0,4.466,3.62,8.084,8.084,8.084 c4.465,0,8.084-3.618,8.084-8.084V153.877l170.192,101.706c19.155,11.448,42.901,11.364,61.975-0.22l161.788-98.255v60.169 c0,4.466,3.62,8.084,8.084,8.084s8.084-3.618,8.084-8.084V142.87c0.001-0.092,0.001-0.184,0-0.277v-13.876 c0-28.182-22.993-51.109-51.255-51.109H94.792c-28.262,0-51.255,22.928-51.254,51.109v10.762c-0.001,0.095-0.001,0.19,0,0.284 v151.568l-1.616,0.472c-14.603,3.926-26.796,13.283-34.344,26.357c-7.538,13.054-9.534,28.258-5.622,42.807 c5.896,21.932,24.037,37.398,45.128,41.042c7.658,19.528,26.352,32.382,47.708,32.382h323.78 c28.262,0,51.255-22.927,51.255-51.109v-28.324c0-4.466-3.62-8.084-8.084-8.084s-8.084,3.619-8.084,8.084v28.324 c0,19.266-15.739,34.941-35.087,34.941H94.792c-12.261,0-23.238-6.176-29.554-16.04c2.03-0.312,4.063-0.735,6.091-1.277 l5.233-1.397l369.993-99.856l6.18,22.983c0.937,3.489,3.463,6.34,6.931,7.826c5.881,2.519,13.198,0.56,17.026-4.556l31.97-42.714 C511.686,279.151,512.719,274.215,511.496,269.648z M59.705,135.042v-6.325c0-19.266,15.739-34.941,35.087-34.941H418.57 c19.347,0,35.087,15.675,35.087,34.941v9.474L283.477,241.545c-13.937,8.463-31.288,8.527-45.288,0.159L59.704,135.042H59.705z M466.694,312.28l-15.382-57.212l44.063,18.893L466.694,312.28z"/><path d="M255.278,300.87l-1.042,0.279c-4.313,1.153-6.874,5.586-5.72,9.899c0.967,3.614,4.234,5.996,7.804,5.996 c0.692,0,1.395-0.089,2.094-0.277l1.042-0.279c4.313-1.153,6.874-5.586,5.72-9.899 C264.023,302.277,259.592,299.713,255.278,300.87z"/><path d="M400.188,333.266l-104.25,27.839c-4.314,1.151-6.877,5.582-5.725,9.896c0.965,3.615,4.233,6.001,7.805,6.001 c0.691,0,1.393-0.089,2.091-0.276l104.25-27.839c4.314-1.151,6.877-5.582,5.725-9.896 C408.933,334.676,404.499,332.113,400.188,333.266z"/><path d="M400.188,262.172l-72.974,19.488c-4.314,1.151-6.877,5.583-5.725,9.897c0.966,3.615,4.233,6,7.805,6 c0.691,0,1.393-0.089,2.091-0.276l72.974-19.488c4.314-1.151,6.877-5.583,5.725-9.897 C408.933,263.582,404.499,261.019,400.188,262.172z"/><path d="M264.662,369.457l-1.042,0.279c-4.313,1.153-6.874,5.586-5.72,9.899c0.967,3.614,4.234,5.996,7.804,5.996 c0.692,0,1.395-0.089,2.094-0.277l1.042-0.279c4.313-1.153,6.874-5.586,5.72-9.899 C273.405,370.863,268.973,368.302,264.662,369.457z"/> 
</svg>