<svg xmlns="http://www.w3.org/2000/svg" fill="#fff" viewBox="0 0 512.002 512.002"><g><g xmlns="http://www.w3.org/2000/svg"><path d="m160.715 399.443h190.571c4.143 0 7.5-3.357 7.5-7.5s-3.357-7.5-7.5-7.5h-190.571c-4.143 0-7.5 3.357-7.5 7.5s3.358 7.5 7.5 7.5z"></path><path d="m160.715 431.234h190.571c4.143 0 7.5-3.357 7.5-7.5s-3.357-7.5-7.5-7.5h-190.571c-4.143 0-7.5 3.357-7.5 7.5s3.358 7.5 7.5 7.5z"></path><path d="m160.715 463.026h190.571c4.143 0 7.5-3.357 7.5-7.5s-3.357-7.5-7.5-7.5h-190.571c-4.143 0-7.5 3.357-7.5 7.5s3.358 7.5 7.5 7.5z"></path><path d="m379.212 238.181c0 13.962 11.358 25.32 25.32 25.32s25.32-11.358 25.32-25.32-11.358-25.321-25.32-25.321-25.32 11.359-25.32 25.321zm35.641 0c0 5.69-4.63 10.32-10.32 10.32s-10.32-4.63-10.32-10.32c0-5.691 4.63-10.321 10.32-10.321s10.32 4.629 10.32 10.321z"></path><path d="m477.585 275.13c4.143 0 7.5-3.357 7.5-7.5v-89.779c0-10.035-8.165-18.2-18.2-18.2h-67.751v-138.952c0-11.414-9.285-20.699-20.698-20.699h-104.936c-4.143 0-7.5 3.357-7.5 7.5s3.357 7.5 7.5 7.5h104.936c3.142 0 5.698 2.557 5.698 5.699v138.951h-256.267v-81.962h41.989c11.414 0 20.699-9.285 20.699-20.699v-41.989h47.945c4.143 0 7.5-3.357 7.5-7.5s-3.357-7.5-7.5-7.5h-55.445c-1.873 0-3.841.741-5.294 2.188-.003.003-.007.005-.01.008l-62.682 62.684c-1.363 1.36-2.202 3.305-2.202 5.308v89.462h-67.75c-10.035 0-18.2 8.165-18.2 18.2v218.379c0 10.036 8.165 18.201 18.2 18.201h67.75v76.127c0 11.824 9.62 21.444 21.444 21.444h243.38c11.824 0 21.443-9.62 21.443-21.444v-76.127h67.751c10.035 0 18.2-8.165 18.2-18.201v-93.6c0-4.143-3.357-7.5-7.5-7.5s-7.5 3.357-7.5 7.5v93.6c0 1.735-1.466 3.201-3.2 3.201h-14.424v-79.603c0-9.167-7.458-16.624-16.625-16.624h-359.67c-9.167 0-16.625 7.457-16.625 16.624v79.603h-14.424c-1.734 0-3.2-1.466-3.2-3.201v-218.378c0-1.734 1.466-3.2 3.2-3.2h421.769c1.734 0 3.2 1.466 3.2 3.2v89.779c-.001 4.142 3.357 7.5 7.499 7.5zm-302.03-249.524v31.383c0 3.143-2.557 5.699-5.699 5.699h-31.382zm208.579 464.952c0 3.554-2.891 6.444-6.443 6.444h-243.38c-3.554 0-6.444-2.891-6.444-6.444 0-6.914 0-117.36 0-124.24h256.268c-.001 6.88-.001 117.326-.001 124.24zm53.327-91.127h-38.327v-33.113h38.327zm-362.92-79.603c0-.88.744-1.624 1.625-1.624h359.671c.881 0 1.625.744 1.625 1.624v31.489c-11.167 0-339.083 0-362.921 0zm0 46.489h38.326v33.113h-38.326z"></path></g></g></svg>