<svg xmlns="http://www.w3.org/2000/svg" fill='#fff' viewBox="0 0 512 512"><path d="m480.18 113.011c4.196 0 7.597-3.401 7.597-7.597v-21.896c0-19.766-16.081-35.846-35.846-35.846h-195.631c-3.04-10.612-8.737-20.353-16.672-28.288-15.821-15.823-39.121-22.674-60.808-17.879-5.012 1.108-9.021 4.864-10.463 9.803-1.449 4.966-.08 10.319 3.573 13.973l22.391 22.391h-38.305l-3.24-3.24c-6.701-6.701-17.943-5.02-22.414 3.24h-70.292c-19.766 0-35.846 16.08-35.846 35.846v293.32c0 19.766 16.081 35.846 35.846 35.846h149.543l-9.695 37.353h-16.756c-24.587 0-44.589 20.002-44.589 44.588 0 9.58 7.794 17.375 17.374 17.375h200.107c9.58 0 17.374-7.795 17.374-17.375 0-24.586-20.002-44.588-44.589-44.588h-16.756l-9.696-37.353h149.543c19.766 0 35.846-16.08 35.846-35.846v-235.714c0-4.196-3.401-7.597-7.597-7.597s-7.597 3.401-7.597 7.597v202.951h-232.411l14.994-14.994c7.385 1.749 15.508-.207 21.342-6.041 7.433-7.433 8.627-18.778 3.585-27.47l12.692-12.693c1.885-1.884 4.082-3.374 6.531-4.428 25.756-11.085 23.353-10.041 23.638-10.181 4.824-2.371 9.474-5.033 13.931-7.97l11.425 11.427c14.069 14.068 36.84 14.07 50.91-.001 14.068-14.067 14.07-36.84 0-50.91l-14.406-14.406c-.002-6.691-2.72-13.082-7.87-17.769-2.724-2.479-5.974-4.254-9.474-5.238 2.578-8.204.526-17.186-5.62-23.349-4.148-4.158-9.284-6.676-14.603-7.396.52-6.563-1.608-13.219-6.282-18.216-3.266-3.492-7.34-5.838-11.7-6.94 1.893-7.581.11-15.831-5.443-21.932-9.405-10.332-25.259-10.343-34.792-.808l-2.934 2.93-11.245-11.245c-8.947-8.948-14.631-20.712-16.004-33.128-.017-.158-.034-.309-.048-.451h193.132c11.388 0 20.653 9.265 20.653 20.652v21.896c0 4.196 3.401 7.597 7.597 7.597zm-276.215-50.145c.017 3.49-1.303 6.985-3.959 9.642-5.304 5.304-13.87 5.283-19.153 0l-9.642-9.642zm124.874 402.365c16.208 0 29.395 13.187 29.395 29.394 0 1.203-.978 2.181-2.18 2.181h-200.108c-1.202 0-2.181-.978-2.181-2.181 0-16.208 13.187-29.394 29.395-29.394zm-113.225-15.194 9.695-37.353h61.381l9.696 37.353zm256.969-90.768v17.569c0 11.387-9.265 20.652-20.653 20.652-6.193 0-390.093 0-391.861 0-11.388 0-20.653-9.265-20.653-20.652v-17.569zm-253.9-15.194h-135.114l37.441-37.441c2.967-2.968 2.967-7.777 0-10.744-2.967-2.966-7.777-2.966-10.743 0l-48.186 48.186h-22.664v-260.558c0-11.387 9.265-20.652 20.653-20.652h67.469c-.643 18.108 6.303 36.226 19.343 49.266 11.416 11.416 26.574 18.2 42.685 19.103 8.208.46 18.976 4.03 27.886 10.555-7.932 10.977-11.572 23.876-10.087 36.37l1.697 14.271c.763 6.413-1.419 12.711-5.987 17.278l-4.018 4.019c-8.84-6.825-21.685-6.28-29.912 1.948-7.131 7.129-8.384 17.579-4.471 25.809l-29.251 29.251c-2.967 2.968-2.967 7.777 0 10.744 2.968 2.967 7.777 2.966 10.743 0l28.327-28.327 67.557 67.556zm47.08-31.779c-2.947 2.945-7.706 2.933-10.64-.001l-75.236-75.236c-2.94-2.939-2.941-7.7-.001-10.64.001 0 .001 0 .001-.001 2.942-2.941 7.699-2.941 10.64.001 7.593 7.593 69.82 69.823 75.236 75.235 2.934 2.935 2.934 7.708 0 10.642zm113.244-90.209 9.47 9.47c8.112 8.111 8.112 21.311 0 29.422-8.112 8.11-21.31 8.111-29.423.001l-9.886-9.886c5.848-4.962 29.2-28.262 29.839-29.007zm-79.236-106.58c3.507-3.507 9.351-3.52 12.817.289 3.123 3.43 2.837 9.047-.635 12.52l-1.624 1.623c-6.588 6.512.605 17.154 9.247 12.941 3.48-1.705 7.616-.925 10.294 1.939 2.834 3.029 3.043 7.814.495 11.382-5.097 7.15 2.193 15.956 10.201 12.213 3.388-1.574 7.52-.647 10.527 2.367 2.421 2.427 2.953 6.199 1.334 9.409-.078.124-.428.657-1.342 1.783-5.505 6.784.197 16.789 8.801 15.787 2.579-.3 5.004.451 6.831 2.115 3.87 3.522 3.756 9.356.359 12.754-20.39 19.748-29.492 31.471-50.655 41.919l-23.109 9.942c-4.225 1.818-8.016 4.388-11.27 7.641l-12.156 12.157-59.952-59.952 3.885-3.885c7.881-7.882 11.647-18.749 10.331-29.817l-1.697-14.271c-.968-8.142 1.294-16.656 6.29-24.197l4.187 4.173c7.053 7.056 18.161 7.62 25.643.196 1.192-.999-.983 1.05 41.198-41.028zm-35.663-8.319 11.236 11.236c-50.478 50.208-12.931 12.862-27.447 27.301-1.373 1.374-2.923 1.174-4.231-.135l-10.193-10.162c-.091-.09-.184-.179-.279-.264-12.259-11.569-28.655-18.314-42.782-19.1-12.372-.693-24.016-5.905-32.788-14.677-11.684-11.684-17.022-28.641-14.199-44.708.006-.031.012-.063.017-.094 9.522 9.522 16.401 16.402 26.666 26.667 11.231 11.231 29.408 11.232 40.64 0 5.428-5.428 8.417-12.645 8.417-20.32 0-7.676-2.989-14.893-8.417-20.321l-26.666-26.666c16.095-2.863 33.096 2.476 44.802 14.183 12.782 12.782 13.867 25.896 14.86 34.861 1.753 15.832 8.985 30.818 20.364 42.199z"></path></svg>