<?xml version="1.0" encoding="UTF-8"?>
<svg width="5.5314in" height="4.3613in" version="1.1" viewBox="0 0 531.01 418.68" xml:space="preserve" xmlns="http://www.w3.org/2000/svg" xmlns:cc="http://creativecommons.org/ns#" xmlns:dc="http://purl.org/dc/elements/1.1/" xmlns:rdf="http://www.w3.org/1999/02/22-rdf-syntax-ns#"><metadata><rdf:RDF><cc:Work rdf:about=""><dc:format>image/svg+xml</dc:format><dc:type rdf:resource="http://purl.org/dc/dcmitype/StillImage"/><dc:title/></cc:Work></rdf:RDF></metadata>
	<path class="male" d="m442.33 82.426c22.73 0 41.214-18.486 41.214-41.213s-18.484-41.213-41.214-41.213c-22.724 0-41.213 18.486-41.213 41.213s18.489 41.213 41.213 41.213z"/>
	<path class="female" d="m108.35 82.426c22.727 0 41.213-18.486 41.213-41.213s-18.486-41.213-41.213-41.213c-22.728 0-41.208 18.486-41.208 41.213s18.486 41.213 41.208 41.213z"/>
	<path class="female" d="m175.44 102.17c-1.777-10.003-10.353-17.226-20.518-17.226h-93.132c-10.171 0-18.746 7.223-20.525 17.226l-31.213 108.68c-0.301 1.039-0.275 2.099 0.026 3.06-0.157 1.002-0.236 1.952-0.236 2.908 0 11.522 9.0177 11.754 9.0177 11.754s15.044-0.34408 16.771-9.8311l35.527-100.46s-2.3674 11.293-0.2061 18.263c2.0095 6.4805 8.7022 19.144 9.1039 29.393 0.33275 8.4906-5.6131 24.866-5.6131 24.866l-35.967 89.792c-2.3479 13.649-13.708 27.113-13.708 27.113l39.3-0.11428v90.195c0 11.528 9.375 20.893 20.9 20.893 11.522 0 20.898-9.375 20.898-20.893v-90.195h4.995v90.195c0 11.528 9.373 20.893 20.898 20.893s20.901-9.375 20.901-20.893v-90.195l39.191 0.57141s-11.211-21.258-14.29-29.181l-31.59-84.685s-6.1428-19.682-5.759-29.741c0.38385-10.058 7.5638-19.888 8.1286-30.344 0.2724-5.0426-2.3208-14.971-2.3208-14.971l34.061 100.89c7.541 18.997 26.44 6.5425 26.795-3.3219-6.9957-37.397-20.684-77.207-31.436-114.65z"/>
	<path class="male" d="m540.61 213.9c0.252-0.808 0.31-1.68 0.141-2.561l-20.514-108.83c-1.648-10.184-10.305-17.567-20.583-17.567h-114.64c-10.283 0-18.936 7.391-20.552 17.431l-20.545 108.97c-0.165 0.881-0.111 1.753 0.139 2.561-0.159 0.998-0.234 1.953-0.234 2.914 0 11.522 9.375 20.897 20.903 20.897 10.073 0 18.698-7.201 20.539-17.238l12.946-80.925-0.167 258.24c0 11.528 9.37 20.893 20.897 20.893s20.902-9.375 20.902-20.893v-127.82h4.986v127.82c0 11.528 9.377 20.893 20.91 20.893 11.521 0 20.893-9.375 20.893-20.897l-0.169-258.24 12.967 81.045c1.82 9.917 10.452 17.118 20.525 17.118 11.522 0 20.897-9.375 20.897-20.897-3e-3 -0.961-0.078-1.927-0.24-2.914z"/>
</svg>
