<?xml version="1.0" encoding="UTF-8"?>
<svg enable-background="new 0 0 203.736 203.736" version="1.1" viewBox="0 0 203.74 203.74" xml:space="preserve" xmlns="http://www.w3.org/2000/svg">
	<path d="m101.87 66.139v131.4h60.26s11.449-59.365 11.168-95.113-71.428-36.282-71.428-36.282z" fill="#543C2A"/>
	<path d="m101.87 66.139v131.4h-60.258s-11.449-59.365-11.168-95.113c0.28-35.748 71.426-36.282 71.426-36.282z" fill="#543C2A"/>
			<rect x="87.17" y="153.47" width="29.395" height="32.923" fill="#FDCC9B"/><g fill="#FCBC85">
			<path d="m87.17 157.35s12.365 7.874 29.395 6.051v-9.929h-29.395v3.878z"/>
			<ellipse cx="44.784" cy="102.42" rx="14.343" ry="16.364"/>
			<ellipse cx="158.95" cy="102.42" rx="14.343" ry="16.364"/>
			</g><path d="m158.89 71.165c0-24.104-17.637-41.741-57.026-41.741s-57.025 17.637-57.025 41.741-4.115 87.597 57.025 87.597c61.141 0 57.026-63.493 57.026-87.597z" fill="#FDCC9B"/>
					<ellipse cx="74.092" cy="98.502" rx="6.173" ry="6.761" fill="#3B2519"/>
					<circle cx="71.401" cy="95.517" r="1.846" fill="#fff"/>
				<path d="m64.217 83.925c2.919 1.117 7.605-3.798 18.335 0.478 1.956 0.78 3.123-6.668-8.378-6.668-9.957 0-11.721 5.515-9.957 6.19z" fill="#684B37"/>
					<ellipse cx="130.41" cy="98.502" rx="6.173" ry="6.761" fill="#3B2519"/>
					<circle cx="127.72" cy="95.517" r="1.846" fill="#fff"/>
				<path d="m139.52 83.925c-2.919 1.117-7.606-3.798-18.335 0.478-1.956 0.78-3.123-6.668 8.377-6.668 9.958 0 11.721 5.515 9.958 6.19z" fill="#684B37"/>
			
			<path d="m101.87 122.28c-6.099 0-9.773-4.557-9.773-2.352 0 2.204 1.764 6.394 9.773 6.394 8.011 0 9.774-4.189 9.774-6.394 1e-3 -2.205-3.674 2.352-9.774 2.352z" fill="#FCBC85"/>
			<path d="m101.87 142.55c-2.109 0-3.38-1.575-3.38-0.814 0 0.763 0.61 2.212 3.38 2.212 2.771 0 3.381-1.449 3.381-2.212 0-0.761-1.27 0.814-3.381 0.814z" fill="#FCBC85"/>
			<path d="m101.87 136.94c-9.668 0-15.492-3.937-15.492-2.939s2.795 4.924 15.492 4.924 15.493-3.927 15.493-4.924-5.825 2.939-15.493 2.939z" fill="#F7945E"/>
		<circle cx="66.154" cy="120.11" r="8.377" fill="#F9AA8D"/>
		<circle cx="138.61" cy="120.11" r="8.377" fill="#F9AA8D"/>
	<path d="m101.87 166.7v37.037h-64.372c0-14.991 30.569-37.037 64.372-37.037z" fill="#F5A860"/>
	<path d="m101.87 166.7v37.037h64.373c0-14.991-30.568-37.037-64.373-37.037z" fill="#F5A860"/>
	<path d="m89.6 167.65c-0.189 0.027-0.379 0.065-0.569 0.094-3.963 0.634-7.829 1.529-11.543 2.653l24.38 33.338v-18.518l-10.998-17.717c-0.421 0.059-0.85 0.086-1.27 0.15z" fill="#F18B45"/>
	<path d="m114.14 167.65c0.19 0.027 0.38 0.065 0.57 0.094 3.963 0.634 7.829 1.529 11.543 2.653l-24.381 33.338v-18.518l10.998-17.716c0.421 0.058 0.851 0.085 1.27 0.149z" fill="#F18B45"/>
	<path d="m101.87 0c-66.431 0-74.216 46.991-71.426 102.42 2.79 55.43 49.824 82.797 49.824 82.797s-52.705-75.427-8.864-141.57c0 0-8.232 14.157-7.786 26.015 0 0 10.328-3.527 38.253-3.527 27.926 0 38.253 3.527 38.253 3.527 0.447-11.858-7.785-26.015-7.785-26.015 43.841 66.138-8.865 141.57-8.865 141.57s47.035-27.367 49.825-82.797c2.789-55.429-4.996-102.42-71.429-102.42z" fill="#684B37"/>
	<path d="m87.17 167.98 14.697 24.408 14.697-24.409c1e-3 0-15.247-5.552-29.394 1e-3z" fill="#FDCC9B"/>
</svg>
