<svg fill="#fff" id="Layer_1" enable-background="new 0 0 512 512" height="512" viewBox="0 0 512 512" width="512" xmlns="http://www.w3.org/2000/svg"><path d="m90 180h90v30h-90z"/><path d="m150 0h-150v482h30v30h30c0-36.762 0-213.562 0-242h270v242h30v-30h30v-392h-240v-30h240v-30h-240zm-90 60h30v30h-30zm240 90h30v30h-30zm0 60h30v30h-30zm-60-60h30v30h-30zm0 60h30v30h-30zm-30-60v90h-150v-90z"/><path d="m90 300h210v60h-210z"/><path d="m90 390h210v92h-210z"/><path d="m420 180v89.39l92-33.93v-55.46z"/><path d="m420 389.39 92-33.93v-55.46h-92z"/></svg>