<?xml version="1.0" encoding="iso-8859-1"?>
<svg fill='#fff' version="1.1" id="Capa_1" xmlns="http://www.w3.org/2000/svg" xmlns:xlink="http://www.w3.org/1999/xlink" x="0px" y="0px"
	 viewBox="0 0 512 512" style="enable-background:new 0 0 512 512;" xml:space="preserve">

	<path d="M463.988,273.749c-26.474,0-48.012,21.539-48.012,48.012c0,26.474,21.539,48.012,48.012,48.012
		c26.474,0,48.012-21.539,48.012-48.012C512,295.287,490.461,273.749,463.988,273.749z"/>
	<rect x="240.932" y="227.738" width="30.008" height="50.013"/>
	<rect x="185.916" y="249.743" transform="matrix(0.7071 -0.7071 0.7071 0.7071 -135.4286 222.544)" width="30.007" height="50.012"/>
	<rect x="285.941" y="259.746" transform="matrix(0.7071 -0.7071 0.7071 0.7071 -103.2031 300.3455)" width="50.012" height="30.007"/>
	<path d="M385.968,321.761c0-5.132,0.512-10.146,1.462-15.004H94.893C44.174,306.757,2.61,346.699,0,396.78h442.613
		C409.956,387.461,385.968,357.37,385.968,321.761z M114.898,376.775c-8.286,0-15.004-6.718-15.004-15.004
		s6.718-15.004,15.004-15.004c8.286,0,15.004,6.718,15.004,15.004S123.185,376.775,114.898,376.775z M199.92,376.775h-50.013
		v-30.008h50.013V376.775z"/>
	<rect x="30.877" y="426.789" width="450.115" height="40.01"/>
	<path d="M252.05,61.314c-10.391-10.392-24.205-16.113-38.901-16.113c-14.694,0-28.51,5.722-38.901,16.113L163.64,71.923
		l226.049,226.049c7.515-23.414,25.81-42.029,49.017-50.003L252.05,61.314z"/>
</svg>